<?xml version="1.0" encoding="iso-8859-1"?>
<!-- Generator: Adobe Illustrator 19.0.0, SVG Export Plug-In . SVG Version: 6.00 Build 0)  -->
<svg version="1.1" id="Capa_1" xmlns="http://www.w3.org/2000/svg" xmlns:xlink="http://www.w3.org/1999/xlink" x="0px" y="0px"
	 viewBox="0 0 511.999 511.999" style="enable-background:new 0 0 511.999 511.999;" xml:space="preserve">
<path style="fill:#FFA816;" d="M478.85,120.557v240.196H33.156V120.557c0-17.417,14.114-31.532,31.52-31.532h382.643
	C464.736,89.026,478.85,103.14,478.85,120.557z"/>
<path style="fill:#FFC843;" d="M478.85,120.557v240.196H215.991l76.183-271.728h155.144
	C464.736,89.026,478.85,103.14,478.85,120.557z"/>
<rect x="33.155" y="128.504" style="fill:#76FFD9;" width="445.694" height="232.253"/>
<path style="fill:#FFA816;" d="M503.433,360.752v24.412c0,20.606-16.709,37.303-37.315,37.303H45.876
	c-20.606,0-37.303-16.697-37.303-37.303v-24.412H503.433z"/>
<polygon style="fill:#FFFFFF;" points="478.85,128.5 478.85,360.752 215.991,360.752 281.112,128.5 "/>
<path style="fill:#FFC843;" d="M503.433,360.752v24.412c0,20.606-16.709,37.303-37.315,37.303h-217.03l17.303-61.715H503.433z"/>
<path style="fill:#E1EAF8;" d="M294.121,391.611h-76.243c-12.082,0-21.877-9.794-21.877-21.877v-8.981h119.995v8.981
	C315.998,381.816,306.203,391.611,294.121,391.611z"/>
<g>
	<path style="fill:#434C54;" d="M503.429,352.433h-16.009V119.537c0-15.639-9.307-29.681-23.712-35.774
		c-4.36-1.843-9.39,0.195-11.234,4.555c-1.843,4.36,0.195,9.39,4.555,11.234c8.048,3.403,13.248,11.248,13.248,19.985v232.896
		h-35.319c-4.734,0-8.572,3.838-8.572,8.572c0,4.734,3.838,8.571,8.572,8.571h59.9v15.839c0,15.844-12.889,28.733-28.733,28.733
		H45.876c-15.844-0.001-28.733-12.89-28.733-28.734v-15.839h387.528c4.734,0,8.571-3.838,8.571-8.572s-3.838-8.571-8.571-8.571
		H41.724V209.275c0-4.734-3.838-8.571-8.571-8.571s-8.571,3.838-8.571,8.571v143.159H8.571c-4.734,0-8.571,3.838-8.571,8.571v24.41
		c0,25.296,20.58,45.876,45.876,45.876h420.247c25.296,0,45.876-20.58,45.876-45.876v-24.41
		C512,356.271,508.162,352.433,503.429,352.433z"/>
	<path style="fill:#434C54;" d="M33.152,183.562c4.734,0,8.571-3.838,8.571-8.571v-55.454c0-11.958,9.728-21.686,21.687-21.686
		h362.598c4.734,0,8.572-3.838,8.572-8.571c0-4.734-3.838-8.571-8.572-8.571H63.41c-21.41,0-38.83,17.418-38.83,38.829v55.454
		C24.581,179.726,28.418,183.562,33.152,183.562z"/>
</g>
<g>
	<path style="fill:#00C395;" d="M178.328,195.066v83.429c0,17.645,14.356,32,32,32s32-14.356,32-32v-83.429
		c0-17.645-14.356-32-32-32S178.328,177.421,178.328,195.066z M225.186,195.066v83.429c0,8.192-6.665,14.857-14.857,14.857
		c-8.192,0-14.857-6.665-14.857-14.857v-83.429c0-8.192,6.665-14.857,14.857-14.857C218.52,180.209,225.186,186.873,225.186,195.066
		z"/>
	<path style="fill:#00C395;" d="M415.323,180.209c4.734,0,8.572-3.838,8.572-8.571s-3.838-8.571-8.572-8.571h-46.857
		c-4.734,0-8.571,3.838-8.571,8.571v130.287c0,4.734,3.838,8.572,8.571,8.572h46.857c4.734,0,8.572-3.838,8.572-8.572
		c0-4.734-3.838-8.571-8.572-8.571h-38.286v-47.848h18.96c4.734,0,8.571-3.838,8.571-8.571c0-4.734-3.838-8.571-8.571-8.571h-18.96
		v-48.152H415.323z"/>
	<path style="fill:#00C395;" d="M120.106,180.209c8.192,0,14.857,6.665,14.857,14.857c0,4.734,3.838,8.571,8.571,8.571
		s8.571-3.838,8.571-8.571c0-17.645-14.356-32-32-32s-32,14.356-32,32v83.429c0,17.645,14.356,32,32,32s32-14.356,32-32
		c0-4.734-3.838-8.572-8.571-8.572c-4.734,0-8.571,3.838-8.571,8.572c0,8.192-6.665,14.857-14.857,14.857
		s-14.857-6.665-14.857-14.857v-83.429C105.249,186.873,111.913,180.209,120.106,180.209z"/>
	<path style="fill:#00C395;" d="M277.123,204.306c-4.734,0-8.572,3.838-8.572,8.571v89.046c0,4.734,3.838,8.572,8.572,8.572h23.429
		c17.645,0,32-14.356,32-32v-83.429c0-17.645-14.356-32-32-32h-23.429c-4.734,0-8.571,3.838-8.571,8.571v14.954
		c0,4.734,3.838,8.571,8.571,8.571c4.734,0,8.572-3.838,8.572-8.571v-6.383h14.857c8.192,0,14.857,6.665,14.857,14.857v83.429
		c0,8.192-6.665,14.857-14.857,14.857h-14.857v-80.475C285.694,208.144,281.857,204.306,277.123,204.306z"/>
</g>
<g>
</g>
<g>
</g>
<g>
</g>
<g>
</g>
<g>
</g>
<g>
</g>
<g>
</g>
<g>
</g>
<g>
</g>
<g>
</g>
<g>
</g>
<g>
</g>
<g>
</g>
<g>
</g>
<g>
</g>
</svg>
